<?xml version="1.0" encoding="UTF-8"?>
<!DOCTYPE svg PUBLIC "-//W3C//DTD SVG 1.1//EN" "http://www.w3.org/Graphics/SVG/1.1/DTD/svg11.dtd">
<svg xmlns="http://www.w3.org/2000/svg" version="1.1" width="256px" height="256px" style="shape-rendering:geometricPrecision; text-rendering:geometricPrecision; image-rendering:optimizeQuality; fill-rule:evenodd; clip-rule:evenodd" xmlns:xlink="http://www.w3.org/1999/xlink">
<g><path style="opacity:0.999" fill="#6378e9" d="M 13.5,-0.5 C 89.5,-0.5 165.5,-0.5 241.5,-0.5C 244.015,1.41656 246.681,3.24989 249.5,5C 251.597,7.86747 253.597,10.7008 255.5,13.5C 255.5,89.5 255.5,165.5 255.5,241.5C 253.583,244.015 251.75,246.681 250,249.5C 247.133,251.597 244.299,253.597 241.5,255.5C 165.5,255.5 89.5,255.5 13.5,255.5C 10.9855,253.583 8.3188,251.75 5.5,250C 3.40301,247.133 1.40301,244.299 -0.5,241.5C -0.5,165.5 -0.5,89.5 -0.5,13.5C 1.41656,10.9855 3.24989,8.3188 5,5.5C 7.86747,3.40301 10.7008,1.40301 13.5,-0.5 Z"/></g>
<g><path style="opacity:1" fill="#02abe2" d="M 115.5,5.5 C 153.864,3.28322 186.864,15.2832 214.5,41.5C 209.664,46.836 204.497,51.836 199,56.5C 165.398,27.218 127.565,20.3846 85.5,36C 74.2794,41.1988 64.1128,48.0322 55,56.5C 49.9849,51.6519 45.1515,46.6519 40.5,41.5C 52.1619,29.3363 65.8286,20.1697 81.5,14C 92.6558,10.0127 103.989,7.17933 115.5,5.5 Z"/></g>
<g><path style="opacity:1" fill="#03abe2" d="M 113.5,42.5 C 139.21,39.8828 162.21,46.3828 182.5,62C 184.351,63.6837 186.018,65.5171 187.5,67.5C 183.101,72.9023 178.101,77.569 172.5,81.5C 148.862,62.4891 123.195,59.3224 95.5,72C 90.6544,75.2567 85.9878,78.7567 81.5,82.5C 75.6232,77.8058 70.7898,72.4725 67,66.5C 80.137,53.8494 95.637,45.8494 113.5,42.5 Z"/></g>
<g><path style="opacity:1" fill="#002944" d="M 69.5,98.5 C 66.4589,102.956 64.7923,107.956 64.5,113.5C 63.0156,117.054 62.3489,120.888 62.5,125C 62.4387,129.746 63.1054,134.246 64.5,138.5C 64.1706,141.228 64.8372,143.562 66.5,145.5C 66.4152,148.649 67.4152,151.316 69.5,153.5C 71.1775,158.197 73.8442,162.197 77.5,165.5C 78.8333,168.833 81.1667,171.167 84.5,172.5C 85.5846,174.587 87.2512,175.92 89.5,176.5C 94.8805,181.355 101.214,184.355 108.5,185.5C 110.277,186.6 112.277,187.434 114.5,188C 122.5,188.667 130.5,188.667 138.5,188C 141.104,187.61 143.438,186.776 145.5,185.5C 148.649,185.585 151.316,184.585 153.5,182.5C 155.514,182.608 157.18,181.942 158.5,180.5C 160.853,179.66 162.853,178.326 164.5,176.5C 166.404,176.262 167.738,175.262 168.5,173.5C 170.749,172.92 172.415,171.587 173.5,169.5C 175.587,168.415 176.92,166.749 177.5,164.5C 179.262,163.738 180.262,162.404 180.5,160.5C 182.588,158.664 183.921,156.331 184.5,153.5C 186.642,150.2 187.975,146.533 188.5,142.5C 189.776,140.438 190.61,138.104 191,135.5C 192.289,124.907 191.289,114.574 188,104.5C 187.617,103.944 187.117,103.611 186.5,103.5C 184.804,98.1262 182.637,93.1262 180,88.5C 184.348,83.9847 188.848,79.6513 193.5,75.5C 196.189,78.5198 198.856,81.5198 201.5,84.5C 202.27,87.4965 203.604,90.1632 205.5,92.5C 206.441,96.3246 207.774,99.9913 209.5,103.5C 211.307,115.396 211.973,127.396 211.5,139.5C 209.508,145.742 207.508,152.076 205.5,158.5C 203.842,161.789 202.175,165.123 200.5,168.5C 178.812,198.999 149.146,212.166 111.5,208C 79.1068,200.774 57.1068,181.607 45.5,150.5C 44.6641,146.677 43.6641,143.011 42.5,139.5C 41.6277,125.241 42.961,111.241 46.5,97.5C 48.0652,95.4907 49.0652,93.1573 49.5,90.5C 52.1454,86.3102 54.6454,81.9769 57,77.5C 58.1332,75.7888 59.6332,75.2888 61.5,76C 66.0153,80.3482 70.3487,84.8482 74.5,89.5C 72.5554,92.3933 70.8887,95.3933 69.5,98.5 Z"/></g>
<g><path style="opacity:1" fill="#03abe2" d="M 122.5,78.5 C 137.647,77.7471 150.647,82.5804 161.5,93C 156.652,98.0151 151.652,102.848 146.5,107.5C 133.298,97.8481 120.464,98.1815 108,108.5C 103.333,103.833 98.6667,99.1667 94,94.5C 93.3333,93.5 93.3333,92.5 94,91.5C 102.231,84.1552 111.731,79.8219 122.5,78.5 Z"/></g>
<g><path style="opacity:1" fill="#128ad0" d="M 201.5,84.5 C 203.771,86.6123 205.104,89.279 205.5,92.5C 203.604,90.1632 202.27,87.4965 201.5,84.5 Z"/></g>
<g><path style="opacity:1" fill="#208dda" d="M 49.5,90.5 C 49.0652,93.1573 48.0652,95.4907 46.5,97.5C 46.5516,94.6538 47.5516,92.3204 49.5,90.5 Z"/></g>
<g><path style="opacity:1" fill="#2087d3" d="M 46.5,97.5 C 42.961,111.241 41.6277,125.241 42.5,139.5C 41.6981,138.048 41.1981,136.382 41,134.5C 40.1432,124.733 40.8099,115.066 43,105.5C 43.5784,102.428 44.745,99.7612 46.5,97.5 Z"/></g>
<g><path style="opacity:1" fill="#2889da" d="M 69.5,98.5 C 68.4054,103.784 66.7387,108.784 64.5,113.5C 64.7923,107.956 66.4589,102.956 69.5,98.5 Z"/></g>
<g><path style="opacity:1" fill="#03abe2" d="M 121.5,111.5 C 130.361,109.515 136.861,112.515 141,120.5C 143.566,129.213 140.733,135.713 132.5,140C 122.532,142.434 115.699,138.934 112,129.5C 111.088,125.548 111.755,121.881 114,118.5C 116.396,115.933 118.896,113.6 121.5,111.5 Z"/></g>
<g><path style="opacity:1" fill="#3b7fd6" d="M 186.5,103.5 C 187.117,103.611 187.617,103.944 188,104.5C 191.289,114.574 192.289,124.907 191,135.5C 190.61,138.104 189.776,140.438 188.5,142.5C 190.334,129.331 189.667,116.331 186.5,103.5 Z"/></g>
<g><path style="opacity:1" fill="#1290d9" d="M 64.5,113.5 C 63.2327,121.83 63.2327,130.164 64.5,138.5C 63.1054,134.246 62.4387,129.746 62.5,125C 62.3489,120.888 63.0156,117.054 64.5,113.5 Z"/></g>
<g><path style="opacity:1" fill="#0e7fc1" d="M 209.5,103.5 C 212.212,110.447 213.545,117.781 213.5,125.5C 213.579,130.412 212.912,135.079 211.5,139.5C 211.973,127.396 211.307,115.396 209.5,103.5 Z"/></g>
<g><path style="opacity:1" fill="#1b92df" d="M 64.5,138.5 C 65.9238,140.515 66.5905,142.848 66.5,145.5C 64.8372,143.562 64.1706,141.228 64.5,138.5 Z"/></g>
<g><path style="opacity:1" fill="#3987de" d="M 42.5,139.5 C 43.6641,143.011 44.6641,146.677 45.5,150.5C 42.8073,147.461 41.8073,143.794 42.5,139.5 Z"/></g>
<g><path style="opacity:1" fill="#1589d1" d="M 66.5,145.5 C 68.0198,147.89 69.0198,150.557 69.5,153.5C 67.4152,151.316 66.4152,148.649 66.5,145.5 Z"/></g>
<g><path style="opacity:1" fill="#108bd1" d="M 211.5,139.5 C 210.987,143.879 210.153,148.213 209,152.5C 208.284,154.879 207.117,156.879 205.5,158.5C 207.508,152.076 209.508,145.742 211.5,139.5 Z"/></g>
<g><path style="opacity:1" fill="#1e83cd" d="M 184.5,153.5 C 183.921,156.331 182.588,158.664 180.5,160.5C 181.079,157.669 182.412,155.336 184.5,153.5 Z"/></g>
<g><path style="opacity:1" fill="#1d87d2" d="M 205.5,158.5 C 205.341,162.674 203.675,166.008 200.5,168.5C 202.175,165.123 203.842,161.789 205.5,158.5 Z"/></g>
<g><path style="opacity:1" fill="#0a78b6" d="M 77.5,165.5 C 80.1667,167.5 82.5,169.833 84.5,172.5C 81.1667,171.167 78.8333,168.833 77.5,165.5 Z"/></g>
<g><path style="opacity:1" fill="#086fab" d="M 177.5,164.5 C 176.92,166.749 175.587,168.415 173.5,169.5C 174.08,167.251 175.413,165.585 177.5,164.5 Z"/></g>
<g><path style="opacity:1" fill="#2089d6" d="M 84.5,172.5 C 86.7488,173.08 88.4154,174.413 89.5,176.5C 87.2512,175.92 85.5846,174.587 84.5,172.5 Z"/></g>
<g><path style="opacity:1" fill="#066ca5" d="M 173.5,169.5 C 172.415,171.587 170.749,172.92 168.5,173.5C 169.585,171.413 171.251,170.08 173.5,169.5 Z"/></g>
<g><path style="opacity:1" fill="#178cd4" d="M 164.5,176.5 C 162.853,178.326 160.853,179.66 158.5,180.5C 159.802,178.178 161.802,176.845 164.5,176.5 Z"/></g>
<g><path style="opacity:1" fill="#138fd8" d="M 89.5,176.5 C 95.7198,179.777 102.053,182.777 108.5,185.5C 101.214,184.355 94.8805,181.355 89.5,176.5 Z"/></g>
<g><path style="opacity:1" fill="#0d91d7" d="M 153.5,182.5 C 151.316,184.585 148.649,185.585 145.5,185.5C 147.89,183.98 150.557,182.98 153.5,182.5 Z"/></g>
<g><path style="opacity:1" fill="#0d95de" d="M 108.5,185.5 C 114.638,186.36 120.805,187.027 127,187.5C 133.195,187.027 139.362,186.36 145.5,185.5C 143.438,186.776 141.104,187.61 138.5,188C 130.5,188.667 122.5,188.667 114.5,188C 112.277,187.434 110.277,186.6 108.5,185.5 Z"/></g>
<g><path style="opacity:1" fill="#e0e3fa" d="M 245.5,195.5 C 248.076,195.722 248.91,197.055 248,199.5C 246.294,198.692 245.461,197.359 245.5,195.5 Z"/></g>
<g><path style="opacity:1" fill="#f4f5fd" d="M 11.5,201.5 C 14.5184,201.335 17.5184,201.502 20.5,202C 22.0283,204.881 21.3616,207.214 18.5,209C 12.0998,210.103 9.76643,207.603 11.5,201.5 Z"/></g>
<g><path style="opacity:1" fill="#f7f8fe" d="M 30.5,238.5 C 30.5,235.167 30.5,231.833 30.5,228.5C 31.5,228.5 32.5,228.5 33.5,228.5C 36.4761,235.771 41.8094,237.938 49.5,235C 50.7691,232.861 50.7691,230.695 49.5,228.5C 43.8118,226.597 38.3118,224.263 33,221.5C 28.9694,214.84 30.136,209.34 36.5,205C 42.7226,203.419 49.0559,203.085 55.5,204C 57.377,207.494 58.0436,211.327 57.5,215.5C 56.1667,215.5 54.8333,215.5 53.5,215.5C 53.6014,211.425 51.6014,208.925 47.5,208C 43.3661,206.902 40.3661,208.235 38.5,212C 39.1007,213.605 40.1007,214.938 41.5,216C 45.5,217.333 49.5,218.667 53.5,220C 60.1936,224.119 61.3603,229.619 57,236.5C 48.5309,242.431 39.6976,243.098 30.5,238.5 Z"/></g>
<g><path style="opacity:1" fill="#f6f6fd" d="M 224.5,203.5 C 230.561,203.21 236.561,203.543 242.5,204.5C 243.489,208.107 243.823,211.774 243.5,215.5C 239.962,215.785 238.129,214.118 238,210.5C 234.183,207.13 230.183,206.797 226,209.5C 225.104,212.025 225.604,214.192 227.5,216C 231.5,217.333 235.5,218.667 239.5,220C 246.017,224.245 247.183,229.745 243,236.5C 234.74,242.242 225.907,243.076 216.5,239C 215.54,235.27 215.207,231.437 215.5,227.5C 216.873,227.343 218.207,227.51 219.5,228C 220.572,233.732 224.072,236.565 230,236.5C 236.045,236.631 237.878,233.965 235.5,228.5C 230.902,226.481 226.235,224.648 221.5,223C 216.848,220.013 215.348,215.846 217,210.5C 219.396,207.933 221.896,205.6 224.5,203.5 Z"/></g>
<g><path style="opacity:1" fill="#f5f6fd" d="M 70.5,204.5 C 72.5,204.5 74.5,204.5 76.5,204.5C 76.5,207.167 76.5,209.833 76.5,212.5C 79.5,212.5 82.5,212.5 85.5,212.5C 85.5,214.167 85.5,215.833 85.5,217.5C 82.5,217.5 79.5,217.5 76.5,217.5C 76.334,222.844 76.5006,228.177 77,233.5C 79.4815,235.314 82.3148,235.98 85.5,235.5C 85.4392,238.05 84.1059,239.55 81.5,240C 76.2434,241.426 71.7434,240.259 68,236.5C 67.5005,230.175 67.3338,223.842 67.5,217.5C 66.1667,217.5 64.8333,217.5 63.5,217.5C 63.5,215.833 63.5,214.167 63.5,212.5C 64.9778,212.762 66.3112,212.429 67.5,211.5C 67.9602,208.844 68.9602,206.51 70.5,204.5 Z"/></g>
<g><path style="opacity:1" fill="#f7f8fe" d="M 99.5,211.5 C 116.976,211.294 122.642,219.294 116.5,235.5C 114.641,237.192 112.641,238.692 110.5,240C 98.0189,243.45 91.0189,238.95 89.5,226.5C 89.6449,219.358 92.9782,214.358 99.5,211.5 Z"/></g>
<g><path style="opacity:1" fill="#f6f7fd" d="M 141.5,211.5 C 143.92,211.292 146.253,211.626 148.5,212.5C 149.484,215.428 149.817,218.428 149.5,221.5C 145.973,221.602 142.806,220.602 140,218.5C 139.127,218.735 138.293,219.069 137.5,219.5C 136.167,225.167 136.167,230.833 137.5,236.5C 138.736,237.246 140.07,237.579 141.5,237.5C 141.5,238.5 141.5,239.5 141.5,240.5C 135.833,240.5 130.167,240.5 124.5,240.5C 124.461,238.641 125.294,237.308 127,236.5C 127.831,230.141 127.664,223.807 126.5,217.5C 123.403,216.229 123.069,214.729 125.5,213C 128.817,212.502 132.15,212.335 135.5,212.5C 135.34,214.199 135.506,215.866 136,217.5C 138.04,215.63 139.873,213.63 141.5,211.5 Z"/></g>
<g><path style="opacity:1" fill="#f7f8fe" d="M 179.5,226.5 C 173.132,226.17 166.798,226.504 160.5,227.5C 160.624,228.107 160.957,228.44 161.5,228.5C 161.799,231.642 163.466,233.809 166.5,235C 170.997,235.729 175.33,235.229 179.5,233.5C 179.292,237.144 177.292,239.311 173.5,240C 156.434,242.271 149.934,235.104 154,218.5C 161.416,210.045 169.416,209.378 178,216.5C 180.376,219.734 180.876,223.067 179.5,226.5 Z"/></g>
<g><path style="opacity:1" fill="#fcfcfe" d="M 7.5,213.5 C 11.8333,213.5 16.1667,213.5 20.5,213.5C 20.1692,221.196 20.5025,228.862 21.5,236.5C 22.7362,237.246 24.0695,237.579 25.5,237.5C 25.5,238.5 25.5,239.5 25.5,240.5C 19.5,240.5 13.5,240.5 7.5,240.5C 7.74578,237.53 9.41245,236.197 12.5,236.5C 12.6662,230.491 12.4995,224.491 12,218.5C 8.90564,218.207 7.40564,216.541 7.5,213.5 Z"/></g>
<g><path style="opacity:1" fill="#f9f9fe" d="M 193.5,213.5 C 209.756,213.68 214.589,221.347 208,236.5C 203.139,240.284 197.639,241.451 191.5,240C 183.75,234.408 181.917,227.241 186,218.5C 188.17,216.177 190.67,214.51 193.5,213.5 Z"/></g>
<g><path style="opacity:1" fill="#6a7cea" d="M 164.5,215.5 C 169.167,215.5 171.5,217.833 171.5,222.5C 167.774,222.823 164.107,222.489 160.5,221.5C 161.255,219.035 162.588,217.035 164.5,215.5 Z"/></g>
<g><path style="opacity:1" fill="#687bea" d="M 102.5,215.5 C 106.637,215.482 109.137,217.482 110,221.5C 111.164,226.726 110.331,231.559 107.5,236C 103.525,237.379 100.691,236.213 99,232.5C 98.3333,228.167 98.3333,223.833 99,219.5C 99.6897,217.65 100.856,216.316 102.5,215.5 Z"/></g>
<g><path style="opacity:1" fill="#6e7feb" d="M 194.5,216.5 C 196.527,216.338 198.527,216.505 200.5,217C 205.779,223.736 205.779,230.402 200.5,237C 195.88,238.538 192.713,237.038 191,232.5C 189.52,226.451 190.686,221.118 194.5,216.5 Z"/></g>
<g><path style="opacity:1" fill="#9aa7f1" d="M 179.5,226.5 C 173.5,227.167 167.5,227.833 161.5,228.5C 160.957,228.44 160.624,228.107 160.5,227.5C 166.798,226.504 173.132,226.17 179.5,226.5 Z"/></g>
<g><path style="opacity:1" fill="#bfc7f6" d="M 33.5,228.5 C 32.5,228.5 31.5,228.5 30.5,228.5C 30.5,231.833 30.5,235.167 30.5,238.5C 29.5184,235.038 29.185,231.371 29.5,227.5C 31.099,227.232 32.4324,227.566 33.5,228.5 Z"/></g>
</svg>
